<?xml version="1.0" encoding="utf-8"?>
<!-- Svg Vector Icons : http://www.onlinewebfonts.com/icon -->
<!DOCTYPE svg PUBLIC "-//W3C//DTD SVG 1.1//EN" "http://www.w3.org/Graphics/SVG/1.1/DTD/svg11.dtd">
<svg version="1.1" xmlns="http://www.w3.org/2000/svg" xmlns:xlink="http://www.w3.org/1999/xlink" x="0px" y="0px" viewBox="0 0 1000 1000" enable-background="new 0 0 1000 1000" xml:space="preserve">
<metadata> Svg Vector Icons : http://www.onlinewebfonts.com/icon </metadata>
<g><g transform="translate(0.000000,512.000000) scale(0.100000,-0.100000)"><path d="M4641,5014.6c-676.6-51.7-1301.5-231.9-1903.4-542.5C1455.2,3807,515.9,2586,203.5,1175.2C119.2,795.7,100,586.7,100,111.4c1.9-523.3,32.6-780.1,151.4-1234.4c92-345,176.4-569.3,345-912.4c251.1-511.8,515.6-881.7,929.7-1295.8c402.5-402.5,741.8-655.6,1217.2-900.9c1418.4-736.1,3088-736.1,4508.4,0c475.4,247.3,879.8,550.1,1261.3,943.1c1845.9,1901.5,1849.7,4909,9.6,6810.5C7686.8,4384,6619.1,4897.7,5426.9,5008.8C5233.2,5026.1,4825,5029.9,4641,5014.6z M4025.6,4362.9c28.8-130.3,47.9-243.4,42.2-253c-5.8-9.6-44.1-23-82.4-30.7c-139.9-24.9-534.8-166.8-743.7-266.4c-231.9-111.2-467.7-251.1-667.1-398.7c-124.6-92-132.3-95.8-155.3-61.3c-15.3,21.1-88.2,113.1-162.9,207c-74.8,93.9-136.1,176.3-136.1,185.9c0,23,348.9,264.5,563.5,391c320.1,187.8,736.1,360.4,1104.1,458.1c115,32.6,166.8,38.3,174.4,23C3970.1,4606.3,3998.8,4491.3,4025.6,4362.9z M6538.6,4491.3c253-90.1,552-228.1,768.6-354.6c205.1-118.8,563.6-368,563.6-389.1c0-7.7-74.8-107.3-164.8-220.4l-164.9-207l-69,53.7c-174.4,134.2-456.2,306.7-684.3,417.9c-239.6,116.9-630.6,260.7-782.1,289.4c-40.2,5.7-78.6,23-84.3,38.3c-7.7,19.2,67.1,394.9,99.7,500.3C6030.7,4646.6,6262.6,4589.1,6538.6,4491.3z M5511.2,3693.9c1510.4-220.4,2702.7-1347.5,3024.7-2861.8c47.9-224.3,51.8-276,53.7-701.6c0-406.4-5.8-486.9-44.1-680.5c-295.2-1466.4-1412.7-2583.9-2879-2879.1c-193.6-38.3-274.1-44.1-680.5-44.1c-425.5,1.9-477.3,5.8-701.6,53.7C2770.1-3097.4,1643-1905.1,1422.6-394.7c-40.3,266.4-40.3,764.8,0,1031.3c230,1577.5,1464.5,2815.8,3045.8,3057.3C4710,3732.2,5258.2,3732.2,5511.2,3693.9z M1284.6,1903.6c9.6-9.6-19.2-97.8-63.3-201.3c-182.1-427.5-277.9-851.1-320.1-1412.7l-11.5-168.7H621.4H351.1l13.4,226.2C399,937.5,537,1516.4,761.3,2009l55.6,122.7l224.3-105.4C1165.8,1966.8,1275,1911.3,1284.6,1903.6z M9233.7,2005.2c210.9-465.8,358.4-1086.8,392.9-1658l13.4-226.2h-270.3h-268.4l-11.5,168.7c-40.3,554-139.9,996.7-320.1,1410.8c-40.3,95.8-74.8,182.1-74.8,189.8c0,11.5,444.7,239.6,473.4,243.4C9172.3,2133.6,9201.1,2076.1,9233.7,2005.2z M1365.1-1780.5c82.4-174.4,325.9-538.6,490.7-734.1c139.9-164.8,375.7-404.4,509.9-511.8c32.6-28.8,61.3-55.6,61.3-63.3c0-5.7-72.8-101.6-161-212.8l-162.9-201.3l-130.4,113.1c-423.6,368-797.4,831.9-1067.7,1332.2l-92,166.8l237.7,115c128.4,61.3,241.5,113.1,247.3,113.1C1303.8-1661.7,1334.4-1715.4,1365.1-1780.5z M8969.1-1790.1l207-103.5l-90.1-166.7c-128.4-235.8-314.4-515.6-488.8-732.2c-159.1-197.4-657.5-690.1-697.7-690.1c-21.1,0-276,299-323.9,377.6c-7.7,15.3,13.4,47.9,59.4,86.3c162.9,139.9,362.3,341.2,500.3,504.1c164.9,195.5,408.3,559.7,490.7,734.1C8693.1-1640.6,8670.1-1640.6,8969.1-1790.1z M4382.2-3937c283.7-51.8,989.1-44.1,1291.9,9.6c126.5,23,230,40.3,233.8,36.4c1.9-1.9,26.8-103.5,55.6-224.3c26.8-120.8,53.6-233.9,59.4-251.1c26.8-90.1-899-180.2-1399.3-134.2c-220.4,21.1-640.2,86.3-653.6,101.6c-1.9,3.8,23,120.8,53.7,260.7l59.4,256.9l57.5-11.5C4173.2-3900.5,4282.5-3919.7,4382.2-3937z"/><path d="M4497.2,3504.1c-741.8-116.9-1393.5-446.6-1920.7-971.8c-513.7-515.6-853-1192.3-964.2-1924.5c-36.4-245.3-36.4-728.4,0-973.7c197.4-1303.4,1100.3-2367.3,2350-2767.9c381.4-122.7,540.5-145.7,1014-145.7c561.6-1.9,830,47.9,1313,239.6c820.4,327.8,1539.2,1046.6,1867,1867c191.7,483,241.5,751.4,239.6,1313c0,371.9-5.8,458.1-42.2,630.6C8166,1641,7719.4,2348.3,7035.1,2858.2c-458.1,341.2-981.4,559.7-1552.6,646C5248.6,3538.6,4723.4,3538.6,4497.2,3504.1z M5522.7,2681.8c529-120.8,927.8-337.4,1305.4-711.2c419.8-415.9,676.7-925.8,757.1-1502.8c28.8-199.3,11.5-690.1-28.8-874.1c-115-517.5-348.8-943.1-718.8-1315c-371.9-369.9-797.4-603.8-1314.9-718.8c-184-40.3-674.7-57.5-874.1-28.8c-582.7,82.4-1084.9,335.4-1502.8,757.1c-377.6,379.6-600,791.7-713.1,1320.7c-47.9,220.4-47.9,803.1,0,1023.6c107.3,504.1,329.7,925.8,672.8,1284.3c402.5,423.6,885.6,680.5,1468.3,784C4765.5,2735.5,5338.7,2724,5522.7,2681.8z"/><path d="M5465.2,1690.8c-220.4-145.7-440.9-258.8-718.8-368c-197.4-78.6-299-111.2-588.5-185.9l-82.4-21.1V979.7V845.5l92,11.5c49.8,7.7,105.4,17.2,124.6,23c30.7,9.6,32.6-46,32.6-985.2V-1102l-42.2-11.5c-24.9-5.8-80.5-11.5-124.6-11.5h-82.4v-134.2v-134.2h920.1h920.1v132.3c0,149.5-9.6,159.1-161,141.8l-88.2-11.5V339.5c0,807-5.8,1468.3-13.4,1466.4C5643.4,1805.8,5561,1754.1,5465.2,1690.8z"/></g></g>
</svg>