<?xml version="1.0" encoding="UTF-8"?>
<svg width="981px" height="982px" viewBox="0 0 981 982" version="1.1" xmlns="http://www.w3.org/2000/svg" xmlns:xlink="http://www.w3.org/1999/xlink">
    <!-- Generator: Sketch 50.2 (55047) - http://www.bohemiancoding.com/sketch -->
    <title>poker-face</title>
    <desc>Created with Sketch.</desc>
    <defs></defs>
    <g id="Page-1" stroke="none" stroke-width="1" fill="none" fill-rule="evenodd">
        <g id="cb71067fb7bc20e550e9bf28d61cd70d" fill="#000000" fill-rule="nonzero">
            <g id="Group" transform="translate(490.500000, 491.000000) scale(-1, 1) rotate(-180.000000) translate(-490.500000, -491.000000) translate(0.000000, 0.500000)">
                <path d="M454.1,979.96 C386.44,974.79 323.95,956.77 263.76,925.71 C135.52,859.2 41.59,737.1 10.35,596.02 C1.92,558.07 0,537.17 0,489.64 C0.19,437.31 3.26,411.63 15.14,366.2 C24.34,331.7 32.78,309.27 49.64,274.96 C74.75,223.78 101.2,186.79 142.61,145.38 C182.86,105.13 216.79,79.82 264.33,55.29 C406.17,-18.32 573.13,-18.32 715.17,55.29 C762.71,80.02 803.15,110.3 841.3,149.6 C1025.89,339.75 1026.27,640.5 842.26,830.65 C758.68,916.9 651.91,968.27 532.69,979.38 C513.32,981.11 472.5,981.49 454.1,979.96 Z M392.56,914.79 C395.44,901.76 397.35,890.45 396.78,889.49 C396.2,888.53 392.37,887.19 388.54,886.42 C374.55,883.93 335.06,869.74 314.17,859.78 C290.98,848.66 267.4,834.67 247.46,819.91 C235,810.71 234.23,810.33 231.93,813.78 C230.4,815.89 223.11,825.09 215.64,834.48 C208.16,843.87 202.03,852.11 202.03,853.07 C202.03,855.37 236.92,879.52 258.38,892.17 C290.39,910.95 331.99,928.21 368.79,937.98 C380.29,941.24 385.47,941.81 386.23,940.28 C387.01,939.13 389.88,927.63 392.56,914.79 Z M643.86,927.63 C669.16,918.62 699.06,904.82 720.72,892.17 C741.23,880.29 777.08,855.37 777.08,853.26 C777.08,852.49 769.6,842.53 760.6,831.22 L744.11,810.52 L737.21,815.89 C719.77,829.31 691.59,846.56 668.78,857.68 C644.82,869.37 605.72,883.75 590.57,886.62 C586.55,887.19 582.71,888.92 582.14,890.45 C581.37,892.37 588.85,929.94 592.11,940.48 C593.07,943.16 616.26,937.41 643.86,927.63 Z M541.12,847.89 C692.16,825.85 811.39,713.14 843.59,561.71 C848.38,539.28 848.77,534.11 848.96,491.55 C848.96,450.91 848.38,442.86 844.55,423.5 C815.03,276.86 703.28,165.11 556.65,135.59 C537.29,131.76 529.24,131.18 488.6,131.18 C446.05,131.37 440.87,131.76 418.44,136.55 C267.01,168.76 154.3,287.99 132.26,439.03 C128.23,465.67 128.23,515.51 132.26,542.16 C155.26,699.91 278.71,823.74 436.84,847.89 C461,851.72 515.82,851.72 541.12,847.89 Z M118.46,668.86 C119.42,667.9 116.54,659.08 112.13,648.73 C93.92,605.98 84.34,563.62 80.12,507.46 L78.97,490.59 L52.14,490.59 L25.11,490.59 L26.45,513.21 C29.9,572.25 43.7,630.14 66.13,679.4 L71.69,691.67 L94.12,681.13 C106.58,675.18 117.5,669.63 118.46,668.86 Z M913.37,679.02 C934.46,632.44 949.21,570.34 952.66,513.22 L954,490.6 L926.97,490.6 L900.13,490.6 L898.98,507.47 C894.95,562.87 884.99,607.14 866.97,648.55 C862.94,658.13 859.49,666.76 859.49,667.53 C859.49,668.68 903.96,691.49 906.83,691.87 C907.23,691.86 910.11,686.11 913.37,679.02 Z M126.51,300.45 C134.75,283.01 159.1,246.59 175.58,227.04 C189.57,210.56 213.15,186.6 226.57,175.86 C229.83,172.98 232.7,170.3 232.7,169.53 C232.7,168.96 225.42,159.37 216.6,148.25 L200.31,128.12 L187.27,139.43 C144.91,176.23 107.53,222.62 80.5,272.65 L71.3,289.33 L95.07,300.83 C107.91,306.96 119.22,312.14 119.8,312.14 C120.38,312.33 123.44,306.96 126.51,300.45 Z M886.91,299.49 L907.61,289.14 L898.6,272.47 C885.76,248.89 867.16,220.91 849.72,199.25 C833.81,179.51 783.97,130.24 779.95,130.24 C777.84,130.24 752.35,160.14 747.56,168 C746.79,169.53 748.9,172.79 753.5,176.63 C769.79,190.62 789.73,210.75 803.53,227.04 C820.02,246.59 844.36,283.01 852.6,300.45 C859.31,314.44 857.01,314.44 886.91,299.49 Z M428.22,84.8 C456.59,79.62 527.13,80.39 557.41,85.76 C570.06,88.06 580.41,89.79 580.79,89.4 C580.98,89.21 583.47,79.05 586.35,66.97 C589.03,54.89 591.71,43.58 592.29,41.86 C594.97,32.85 502.39,23.84 452.36,28.44 C430.32,30.55 388.34,37.07 387,38.6 C386.81,38.98 389.3,50.68 392.37,64.67 L398.31,90.36 L404.06,89.21 C407.32,88.45 418.25,86.53 428.22,84.8 Z" id="Shape"></path>
            </g>
        </g>
        <circle id="Oval" stroke="#000000" fill="#000000" cx="356" cy="399" r="53"></circle>
        <circle id="Oval" stroke="#000000" fill="#000000" cx="626" cy="399" r="53"></circle>
        <path d="M356,630 C385.986733,663.234572 430.986733,679.851857 491,679.851857 C551.013267,679.851857 596.013267,663.234572 626,630" id="Line" stroke="#000000" stroke-width="55" stroke-linecap="square"></path>
    </g>
</svg>