<?xml version="1.0" standalone="no"?>
<!DOCTYPE svg PUBLIC "-//W3C//DTD SVG 20010904//EN"
 "http://www.w3.org/TR/2001/REC-SVG-20010904/DTD/svg10.dtd">
<svg version="1.0" xmlns="http://www.w3.org/2000/svg"
 width="982.000000pt" height="982.000000pt" viewBox="0 0 982.000000 982.000000"
 preserveAspectRatio="xMidYMid meet">
<metadata>
Created by potrace 1.14, written by Peter Selinger 2001-2017
</metadata>
<g transform="translate(0.000000,982.000000) scale(0.100000,-0.100000)"
fill="#000000" stroke="none">
<path d="M4717 9814 c-1 -1 -56 -5 -122 -8 -66 -4 -138 -9 -160 -11 -116 -12
-151 -16 -165 -20 -8 -2 -37 -6 -65 -10 -59 -7 -110 -15 -139 -21 -41 -9 -91
-17 -113 -18 -13 0 -23 -5 -23 -10 0 -4 -6 -6 -14 -3 -8 3 -17 3 -20 -1 -4 -3
-14 -7 -24 -8 -34 -5 -100 -20 -104 -24 -2 -1 -12 -3 -23 -4 -32 -4 -170 -44
-310 -88 -71 -23 -132 -42 -135 -43 -3 0 -9 -3 -15 -6 -5 -4 -34 -14 -64 -24
-29 -9 -65 -23 -79 -31 -14 -7 -29 -11 -34 -8 -4 3 -8 0 -8 -5 0 -6 -3 -10 -7
-9 -8 1 -21 -3 -93 -34 -196 -85 -434 -205 -592 -301 -65 -39 -134 -80 -151
-91 -18 -10 -34 -21 -37 -25 -3 -3 -17 -13 -31 -21 -15 -8 -39 -24 -54 -35
-86 -63 -126 -92 -145 -105 -59 -40 -270 -213 -270 -221 0 -5 -4 -9 -10 -9
-10 0 -33 -20 -123 -104 -76 -71 -207 -198 -207 -201 0 -1 -28 -31 -61 -66
-34 -35 -105 -116 -158 -179 -53 -63 -100 -120 -106 -127 -77 -90 -273 -376
-366 -533 -24 -42 -52 -89 -62 -105 -27 -45 -220 -433 -241 -485 -10 -25 -20
-54 -23 -65 -2 -10 -9 -23 -16 -27 -6 -4 -9 -8 -5 -8 4 0 -2 -21 -13 -47 -12
-27 -23 -55 -25 -63 -2 -8 -26 -78 -52 -155 -43 -126 -76 -231 -88 -286 -2
-10 -6 -27 -9 -36 -14 -53 -28 -110 -30 -123 -1 -8 -8 -35 -15 -60 -7 -25 -14
-56 -16 -70 -1 -14 -6 -38 -9 -55 -4 -16 -8 -41 -10 -55 -2 -14 -4 -25 -5 -25
-3 0 -10 -38 -14 -75 -2 -19 -6 -51 -10 -70 -25 -149 -31 -288 -30 -695 1
-363 4 -458 18 -580 19 -160 18 -153 41 -270 5 -22 9 -49 10 -60 1 -11 5 -31
8 -45 4 -14 9 -36 11 -50 3 -14 5 -25 7 -25 1 0 3 -9 4 -20 8 -53 69 -280 77
-283 4 -2 5 -8 2 -14 -4 -5 -2 -20 4 -31 5 -12 26 -71 45 -132 54 -171 85
-253 119 -319 5 -10 11 -26 13 -35 3 -16 149 -324 188 -398 10 -18 18 -36 18
-40 1 -5 9 -19 18 -33 9 -14 30 -50 45 -80 16 -30 34 -62 41 -70 7 -8 14 -20
16 -25 2 -6 24 -43 49 -83 71 -116 88 -141 194 -287 44 -60 83 -112 86 -115 3
-3 21 -25 40 -50 19 -25 41 -52 50 -60 8 -8 42 -46 75 -85 61 -71 247 -266
299 -314 16 -14 50 -46 75 -71 68 -65 150 -139 207 -187 27 -23 59 -50 70 -60
12 -10 36 -29 54 -43 18 -14 39 -31 46 -37 7 -7 17 -13 23 -13 6 0 11 -4 11
-9 0 -5 15 -18 33 -30 38 -24 217 -147 233 -160 11 -9 287 -169 349 -202 95
-52 365 -180 405 -194 3 -1 19 -7 35 -15 43 -18 128 -51 140 -53 6 -1 12 -4
15 -7 6 -7 299 -104 360 -120 25 -6 52 -14 60 -17 8 -3 20 -7 25 -8 6 -2 46
-12 90 -23 44 -11 97 -23 118 -26 21 -4 46 -10 55 -14 9 -5 24 -8 32 -7 8 1
21 -3 28 -8 6 -5 12 -7 12 -5 0 3 21 1 48 -4 26 -5 58 -11 72 -13 79 -12 108
-17 135 -20 17 -2 48 -6 70 -9 340 -46 850 -51 1140 -11 17 2 50 6 75 10 87
10 115 14 145 20 62 11 101 17 134 21 19 3 38 7 44 11 6 4 27 7 47 8 20 1 40
4 46 7 9 5 78 21 99 23 6 0 16 4 23 8 6 5 12 6 12 3 0 -3 21 2 48 10 26 8 58
17 72 20 14 3 34 8 45 11 11 4 22 7 25 8 14 3 127 37 140 42 8 3 18 7 23 8 4
2 8 3 10 4 1 2 11 4 23 6 12 3 41 13 65 23 24 10 65 25 92 33 26 7 47 16 47
20 0 3 6 6 13 6 6 0 77 27 157 61 80 34 149 61 154 61 5 0 12 4 15 9 3 5 44
28 91 50 47 22 134 68 194 101 60 34 113 61 118 61 4 0 8 4 8 9 0 5 8 11 18
14 18 6 73 38 82 47 3 3 37 26 75 49 39 24 72 48 73 53 2 4 8 8 13 8 5 0 37
20 71 45 35 25 72 52 83 60 34 24 67 49 84 65 10 8 37 30 62 49 24 19 51 40
59 48 8 7 29 24 45 39 17 14 50 42 74 63 56 46 81 72 81 85 0 5 3 6 7 3 6 -7
246 233 343 343 30 34 60 67 65 74 15 17 99 120 107 131 4 6 18 22 30 37 13
14 30 36 38 48 8 12 36 49 61 83 105 143 260 381 301 467 7 14 15 27 19 30 21
18 249 498 249 526 0 8 5 14 11 14 6 0 9 6 6 14 -3 7 -2 17 3 22 5 5 23 47 40
94 17 47 33 92 37 100 3 8 7 20 9 27 2 10 42 134 62 193 3 8 6 20 8 25 1 6 17
64 34 130 17 66 34 131 37 145 9 44 11 55 13 55 1 0 3 11 5 25 2 14 6 39 10
55 4 17 8 41 10 55 2 14 4 25 5 25 1 0 4 14 5 30 2 17 6 41 9 55 10 49 29 185
41 310 13 128 16 176 21 389 3 124 7 228 9 231 3 4 2 10 -2 13 -3 3 -7 39 -9
79 -6 132 -18 269 -35 391 -5 37 -8 70 -8 75 1 4 0 9 -1 12 -1 3 -4 19 -6 35
-19 116 -60 324 -79 398 -8 30 -16 61 -21 86 -3 14 -7 28 -9 31 -2 4 -7 22
-10 40 -9 53 -139 435 -180 530 -20 47 -38 90 -39 95 -14 57 -210 441 -287
563 -16 26 -32 55 -35 65 -4 9 -10 17 -15 17 -5 0 -9 5 -9 11 0 6 -32 59 -72
117 -103 155 -98 147 -213 295 -80 104 -82 107 -118 148 -12 14 -42 49 -67 78
-25 29 -78 87 -117 128 -40 42 -73 81 -73 86 0 6 -2 8 -5 6 -2 -3 -46 36 -97
86 -52 49 -123 116 -158 147 -36 31 -76 66 -90 78 -14 13 -56 48 -95 78 -38
31 -71 60 -73 64 -2 4 -10 8 -17 8 -7 0 -15 3 -17 8 -3 8 -186 142 -194 142
-2 0 -10 5 -17 10 -47 39 -62 50 -78 55 -11 4 -19 11 -19 16 0 5 -5 9 -11 9
-6 0 -23 8 -37 19 -117 83 -535 301 -717 373 -27 11 -61 25 -75 31 -14 5 -29
11 -35 13 -5 1 -23 8 -40 15 -16 6 -34 13 -40 15 -5 1 -68 23 -140 47 -177 60
-212 70 -345 102 -63 15 -122 30 -130 33 -19 6 -37 10 -75 16 -16 3 -48 8 -70
11 -22 4 -47 9 -55 12 -8 3 -28 7 -45 9 -16 2 -46 7 -65 10 -48 9 -58 11 -115
18 -27 3 -68 8 -90 11 -90 12 -126 15 -260 21 -125 6 -484 11 -488 8z m-847
-410 c11 -11 57 -192 64 -249 1 -12 5 -25 8 -30 3 -6 9 -32 12 -59 4 -27 9
-52 10 -55 2 -3 6 -30 10 -59 l6 -53 -35 -15 c-19 -8 -49 -16 -67 -18 -18 -3
-34 -6 -35 -7 -2 -1 -7 -3 -13 -4 -5 -1 -11 -3 -12 -5 -2 -1 -11 -3 -20 -5
-29 -5 -383 -127 -393 -135 -5 -4 -21 -11 -35 -15 -43 -13 -255 -108 -261
-118 -3 -5 -9 -8 -13 -7 -7 3 -116 -50 -126 -60 -3 -3 -18 -12 -35 -20 -55
-28 -150 -85 -153 -92 -2 -5 -9 -8 -15 -8 -13 0 -261 -166 -278 -186 -6 -8
-16 -14 -21 -14 -5 0 -26 -13 -46 -29 -55 -42 -68 -44 -97 -13 -14 15 -25 29
-25 33 0 3 -18 25 -40 50 -22 24 -40 47 -40 51 0 4 -6 13 -13 20 -23 23 -154
193 -165 215 -10 17 -6 25 23 52 19 17 39 31 44 31 5 0 11 3 13 8 3 8 94 76
143 106 16 11 38 28 49 38 11 10 23 18 27 18 6 0 63 35 129 80 52 35 112 70
120 70 6 0 10 5 10 10 0 6 6 10 14 10 8 0 21 6 28 13 7 7 29 19 48 27 19 8 37
17 40 20 5 7 198 101 289 142 93 41 111 49 203 84 132 51 142 55 148 56 3 1
43 14 90 30 78 26 169 54 260 79 19 6 51 12 70 16 19 3 36 6 38 8 6 6 32 -1
42 -11z m2165 1 c48 -9 188 -49 290 -83 61 -20 112 -37 115 -37 7 -2 40 -15
65 -25 11 -5 73 -29 139 -55 65 -26 170 -72 235 -103 64 -30 118 -54 120 -53
2 2 7 -1 10 -6 3 -4 29 -20 56 -34 89 -45 168 -91 238 -135 37 -24 70 -44 73
-44 3 0 16 -8 29 -17 12 -10 31 -24 41 -30 87 -57 168 -113 216 -150 31 -24
59 -43 62 -43 14 0 56 -53 49 -63 -10 -18 -147 -201 -154 -207 -3 -3 -43 -52
-88 -108 l-83 -104 -26 24 c-15 12 -28 26 -30 31 -2 4 -10 7 -17 7 -7 0 -15 4
-17 9 -6 17 -398 271 -418 271 -4 0 -13 7 -20 15 -7 9 -15 13 -18 11 -3 -3
-17 3 -32 14 -16 11 -33 20 -39 20 -6 0 -11 5 -11 10 0 6 -4 10 -10 10 -5 0
-53 22 -107 48 -54 26 -145 67 -203 91 -58 24 -114 47 -125 52 -100 44 -392
139 -465 153 -14 2 -37 9 -52 15 -25 9 -27 14 -23 53 2 24 6 53 9 64 2 12 7
37 10 55 3 19 8 45 11 59 3 14 8 39 11 55 2 17 9 44 13 62 5 17 6 34 3 37 -3
3 -1 6 4 6 5 0 10 8 10 18 2 25 10 63 23 94 11 29 16 30 106 13z m-895 -900
c185 -8 248 -13 303 -24 29 -6 68 -13 87 -15 19 -3 42 -7 50 -10 8 -3 32 -8
54 -11 21 -3 84 -17 140 -31 55 -15 108 -27 116 -28 8 -1 25 -8 38 -14 12 -7
22 -10 22 -7 0 3 16 -1 35 -9 19 -8 35 -13 35 -10 0 3 10 -1 23 -8 12 -6 27
-13 32 -14 26 -5 141 -47 150 -55 5 -5 14 -9 21 -9 6 0 38 -12 70 -26 33 -14
60 -26 61 -25 2 0 49 -23 105 -52 57 -28 107 -50 111 -49 4 1 10 -5 13 -13 4
-8 14 -15 23 -15 9 0 21 -4 27 -9 5 -5 32 -22 59 -37 28 -15 52 -30 55 -33 3
-3 25 -17 50 -30 25 -14 47 -27 50 -30 3 -3 41 -30 85 -60 44 -30 84 -58 90
-63 5 -4 51 -40 100 -79 50 -38 96 -77 103 -86 6 -9 12 -14 12 -11 0 25 321
-302 430 -439 8 -10 34 -41 58 -70 23 -28 42 -54 42 -58 0 -3 6 -13 14 -20 8
-8 45 -61 82 -117 38 -57 72 -104 77 -106 4 -2 7 -8 7 -13 0 -5 13 -30 29 -56
82 -134 199 -368 252 -508 11 -27 24 -59 29 -70 19 -39 59 -165 52 -165 -4 0
-2 -4 3 -8 9 -6 30 -65 49 -142 34 -131 65 -261 69 -285 3 -16 8 -41 11 -55
26 -108 31 -220 31 -640 0 -353 -3 -437 -21 -545 -3 -16 -7 -43 -10 -60 -10
-66 -87 -376 -105 -422 -6 -15 -10 -30 -11 -33 0 -3 -5 -18 -12 -35 -7 -16
-14 -34 -14 -40 -3 -16 -24 -79 -31 -90 -3 -5 -6 -14 -7 -20 -2 -12 -80 -198
-93 -223 -5 -9 -24 -48 -43 -87 -18 -38 -36 -71 -40 -73 -5 -2 -8 -12 -8 -22
0 -9 -7 -23 -15 -30 -8 -6 -17 -21 -21 -32 -9 -29 -76 -142 -86 -146 -4 -2 -8
-8 -8 -13 0 -8 -95 -158 -122 -194 -90 -119 -144 -187 -170 -219 -18 -21 -46
-55 -63 -74 -53 -63 -303 -311 -344 -340 -22 -16 -37 -32 -34 -36 3 -3 1 -6
-5 -6 -6 0 -17 -6 -24 -13 -7 -7 -33 -28 -58 -47 -25 -19 -47 -37 -50 -40 -3
-4 -50 -38 -105 -77 -129 -91 -286 -188 -411 -253 -54 -29 -105 -57 -111 -62
-7 -6 -13 -8 -13 -4 0 3 -22 -5 -50 -19 -55 -28 -286 -124 -310 -129 -8 -2
-26 -8 -40 -13 -14 -6 -28 -9 -32 -6 -5 2 -8 -1 -8 -7 0 -6 -3 -9 -7 -7 -5 3
-19 0 -33 -6 -14 -5 -34 -12 -45 -14 -11 -2 -27 -6 -35 -10 -49 -20 -328 -87
-415 -99 -27 -3 -59 -8 -70 -10 -75 -15 -713 -25 -722 -11 -2 4 -12 3 -22 -3
-10 -5 -20 -8 -22 -6 -2 2 -58 7 -124 10 -66 3 -131 8 -145 11 -14 3 -41 8
-60 11 -19 3 -42 7 -50 9 -8 2 -30 7 -48 10 -19 3 -95 21 -170 41 -75 19 -144
37 -152 39 -8 2 -15 4 -15 5 0 1 -7 3 -15 5 -28 6 -235 78 -245 85 -5 4 -21
11 -35 15 -32 9 -161 66 -270 118 -267 129 -561 324 -797 528 -45 40 -317 313
-353 356 -125 147 -218 274 -315 428 -73 116 -80 127 -140 242 -20 36 -39 71
-43 77 -4 6 -7 13 -7 16 0 3 -17 40 -38 83 -20 44 -37 81 -37 83 0 2 -8 23
-19 47 -20 45 -45 109 -46 117 -1 3 -8 21 -16 40 -14 30 -19 47 -34 103 -2 4
-4 9 -5 12 -1 3 -4 10 -5 15 -1 6 -3 12 -4 15 0 3 -1 6 -1 8 0 1 -8 28 -19 59
-11 31 -22 74 -25 94 -4 20 -8 40 -11 44 -7 11 -51 212 -60 275 -1 11 -5 36
-9 55 -34 186 -42 860 -11 1003 2 12 7 42 10 67 6 51 14 98 20 120 2 8 7 31
10 50 10 61 57 254 66 272 5 9 12 33 15 54 3 20 11 49 16 63 6 14 12 31 13 36
5 21 88 242 108 285 48 109 161 337 175 353 8 9 11 17 6 17 -5 0 -4 4 1 8 6 4
24 30 40 57 16 28 49 81 74 119 25 37 51 76 56 85 11 19 154 210 170 227 5 7
30 36 55 65 84 100 207 226 342 349 46 42 38 36 170 143 59 48 112 87 118 87
6 0 13 7 16 15 4 8 10 15 14 15 5 0 46 25 92 56 101 69 262 164 276 164 6 0
12 3 14 8 3 7 149 80 238 120 25 10 61 26 80 35 62 28 95 41 105 42 6 1 21 6
35 12 139 57 511 157 655 177 22 3 51 8 65 11 37 8 137 15 295 21 77 3 141 7
142 8 3 2 197 -3 323 -9z m-4380 -1600 c0 3 21 -6 48 -19 26 -14 122 -61 214
-105 91 -44 168 -86 170 -93 6 -16 -22 -105 -55 -180 -14 -31 -23 -59 -19 -62
3 -3 0 -6 -6 -6 -7 0 -12 -8 -12 -17 0 -10 -6 -30 -14 -44 -11 -21 -45 -112
-51 -139 -1 -3 -4 -12 -7 -20 -23 -63 -41 -121 -68 -225 -17 -66 -35 -133 -40
-150 -4 -16 -12 -50 -16 -75 -4 -25 -8 -47 -9 -50 -12 -51 -16 -71 -19 -100
-3 -19 -9 -57 -14 -85 -6 -27 -11 -68 -13 -90 -1 -22 -5 -44 -7 -49 -3 -5 -6
-30 -7 -55 -2 -25 -3 -46 -4 -46 -1 0 -4 -18 -6 -40 -1 -22 -6 -78 -10 -125
-4 -47 -8 -110 -10 -141 -1 -31 -5 -61 -9 -67 -4 -7 -66 -11 -179 -11 -95 1
-176 0 -182 -1 -5 -1 -14 -2 -20 0 -5 1 -43 1 -83 1 l-72 0 4 62 c3 34 8 105
11 157 8 131 16 223 30 331 3 26 7 64 10 85 2 22 6 48 8 59 3 11 8 42 11 69 4
27 9 52 10 55 2 3 7 26 10 51 4 25 11 63 17 85 6 22 12 51 14 65 1 14 4 25 5
25 1 0 3 9 5 20 12 75 108 400 151 512 14 37 26 74 27 81 0 6 5 12 10 12 6 0
7 3 4 7 -4 3 0 17 8 30 9 13 13 23 11 23 -5 0 20 60 73 175 16 33 31 70 35 83
6 18 11 20 27 12 10 -6 19 -8 19 -5z m8355 -48 c89 -196 150 -357 204 -532 31
-103 69 -240 75 -272 2 -10 9 -36 15 -58 5 -22 13 -56 17 -75 11 -63 14 -74
30 -150 8 -41 17 -88 19 -105 2 -16 4 -30 5 -30 1 0 3 -11 5 -25 2 -14 6 -43
9 -65 22 -167 21 -163 30 -255 11 -125 18 -226 21 -302 l2 -77 -233 0 c-128 1
-238 -2 -243 -5 -5 -4 -12 -2 -15 3 -3 5 -15 7 -26 4 -17 -5 -20 0 -21 33 -1
22 -3 55 -5 74 -1 19 -6 71 -9 115 -15 175 -27 288 -30 295 -2 3 -6 33 -10 65
-3 33 -8 67 -11 76 -3 9 -7 34 -9 55 -9 73 -81 371 -119 494 -15 47 -28 90
-29 95 -2 6 -5 15 -9 20 -3 6 -9 25 -13 43 -3 17 -10 32 -14 32 -4 0 -8 6 -8
14 0 11 -35 102 -114 292 -24 57 -21 73 19 92 102 51 187 98 190 105 2 4 10 7
17 7 8 0 37 14 65 30 28 17 55 30 60 30 5 0 23 8 39 18 53 32 66 27 96 -41z
m-7888 -3754 c4 -10 9 -20 12 -23 3 -3 26 -45 50 -95 25 -49 47 -92 50 -95 3
-3 15 -21 25 -40 11 -19 39 -65 63 -101 24 -36 43 -71 43 -77 0 -6 4 -12 8
-14 5 -1 39 -48 77 -103 38 -55 74 -107 82 -115 7 -8 27 -33 43 -55 68 -91 77
-102 193 -229 68 -75 265 -273 319 -321 19 -16 57 -50 86 -75 29 -24 52 -51
52 -58 0 -12 -27 -50 -124 -177 -17 -22 -33 -42 -36 -45 -3 -3 -38 -47 -79
-97 -41 -51 -77 -93 -80 -93 -3 0 -24 17 -47 38 -22 20 -72 64 -110 97 -125
108 -360 348 -471 481 -10 12 -38 46 -63 74 -25 29 -49 60 -54 69 -5 9 -12 18
-16 21 -10 8 -186 249 -205 281 -5 9 -47 75 -92 147 -45 71 -97 158 -115 193
-18 35 -35 66 -38 69 -3 3 -11 16 -18 30 -7 14 -23 43 -36 66 l-23 41 146 72
c80 39 152 71 159 71 6 0 12 4 12 9 0 8 41 23 56 20 4 0 10 4 14 11 4 6 13 12
21 14 8 1 23 7 34 14 29 17 55 15 62 -5z m7441 -2 c9 -4 108 -52 219 -107 129
-63 199 -102 194 -109 -5 -5 -29 -48 -53 -95 -25 -47 -55 -101 -67 -120 -11
-19 -24 -42 -28 -50 -12 -27 -157 -255 -169 -268 -7 -6 -16 -21 -19 -32 -3
-11 -11 -20 -16 -20 -5 0 -9 -5 -9 -10 0 -6 -5 -16 -10 -23 -6 -7 -47 -61 -91
-122 -44 -60 -84 -112 -88 -115 -4 -3 -12 -12 -17 -21 -28 -50 -471 -507 -614
-633 -86 -77 -89 -77 -149 -14 -54 58 -66 72 -121 138 -39 47 -57 69 -81 98
-9 10 -28 36 -42 57 -35 51 -37 48 120 190 63 57 273 264 273 269 0 2 19 24
43 48 59 63 96 105 142 163 22 28 43 52 48 53 4 2 7 10 7 17 0 7 4 15 8 17 9
4 154 205 172 239 7 13 16 26 20 29 8 6 130 202 152 245 8 17 30 59 48 95 18
36 37 71 43 78 11 14 59 16 85 3z m-4613 -2205 c36 -7 77 -14 108 -20 12 -3
39 -7 61 -10 21 -4 41 -8 45 -10 6 -4 64 -11 171 -22 43 -4 268 -15 300 -15 8
0 33 0 55 0 111 -1 146 1 157 7 7 5 8 3 3 -6 -5 -9 -2 -10 14 -5 11 3 87 8
168 10 226 6 328 16 518 50 155 27 168 27 171 0 2 -14 60 -262 85 -360 10 -44
19 -87 19 -96 0 -18 -65 -50 -110 -54 -14 -2 -25 -4 -25 -5 0 -2 -26 -8 -70
-15 -395 -69 -1003 -87 -1325 -40 -25 4 -58 8 -75 10 -72 8 -122 15 -145 20
-14 3 -38 7 -55 10 -70 9 -112 16 -135 22 -14 3 -29 5 -34 4 -4 -1 -24 3 -42
9 -29 10 -33 15 -30 36 8 41 36 175 51 239 8 33 16 69 18 80 2 11 12 55 22 98
15 60 22 76 34 73 9 -3 30 -7 46 -10z"/>
<path d="M3538 6365 c-2 -2 -21 -5 -43 -8 -105 -15 -200 -57 -268 -119 -22
-21 -43 -38 -46 -38 -13 -1 -129 -190 -116 -190 2 0 0 -12 -6 -26 -22 -60 -29
-173 -15 -254 27 -154 146 -310 286 -377 19 -9 37 -17 40 -18 3 -1 14 -5 25
-9 42 -16 51 -19 80 -23 51 -7 148 -7 180 0 17 4 44 9 60 13 151 33 305 180
359 342 24 73 27 90 28 173 1 84 -19 167 -60 248 -28 57 -150 194 -164 185 -4
-3 -8 -1 -8 4 0 12 -94 57 -161 76 -48 14 -163 28 -171 21z"/>
<path d="M6163 6352 c-32 -7 -63 -15 -70 -16 -16 -3 -105 -49 -128 -66 -22
-17 -124 -120 -140 -141 -15 -20 -56 -109 -67 -144 -57 -190 3 -414 146 -542
63 -56 77 -67 118 -86 99 -47 158 -60 258 -59 155 3 286 63 390 180 47 52 98
137 92 155 -1 4 3 7 9 7 5 0 8 4 4 9 -3 5 -1 12 4 16 5 3 10 13 10 23 0 9 3
33 7 52 14 70 8 168 -15 246 -14 48 -63 144 -74 144 -6 0 -8 3 -4 6 3 3 -5 17
-18 30 -13 13 -28 29 -32 36 -21 34 -163 127 -176 116 -2 -2 -10 2 -18 8 -41
33 -206 47 -296 26z"/>
<path d="M3569 3893 c-9 -10 -49 -48 -90 -85 -158 -142 -193 -174 -213 -193
-12 -11 -35 -32 -53 -46 -37 -31 -44 -14 62 -133 87 -98 193 -205 254 -256
222 -187 543 -332 856 -385 35 -6 89 -15 115 -20 30 -5 101 -13 190 -21 67 -6
381 -6 460 0 58 4 165 16 193 22 12 2 39 6 62 9 33 5 69 11 105 20 3 1 32 7
65 14 33 6 69 16 80 21 11 6 29 12 40 13 22 4 23 5 140 49 83 32 206 88 215
99 3 4 23 16 45 28 43 23 69 39 94 58 9 7 43 32 77 57 68 51 184 164 289 281
39 43 78 87 87 96 16 17 12 22 -65 91 -44 40 -98 89 -118 108 -20 19 -58 53
-83 75 -26 22 -64 57 -85 77 l-39 38 -73 -82 c-86 -95 -204 -214 -239 -243
-109 -88 -333 -197 -455 -221 -5 -1 -30 -7 -55 -14 -25 -7 -58 -14 -75 -16
-16 -2 -39 -6 -50 -8 -36 -7 -138 -19 -182 -21 -24 -1 -46 -5 -50 -8 -3 -4
-12 -2 -20 4 -7 6 -13 8 -13 3 0 -10 -247 -10 -257 -1 -3 4 -14 2 -24 -4 -11
-5 -19 -6 -19 -1 0 4 -8 8 -17 8 -42 2 -160 14 -188 20 -33 6 -62 12 -99 18
-13 2 -33 7 -44 10 -11 4 -30 9 -42 11 -39 8 -145 47 -227 85 -161 75 -260
155 -458 373 -76 84 -81 87 -96 70z"/>
</g>
</svg>
